<svg xmlns="http://www.w3.org/2000/svg" width="92" height="32" viewBox="0 0 92 32" fill="none"><path d="M16.3668 8.47324H18.8331V10.8169L6.45705 26.4113H2.10751L16.3668 8.47324ZM0.762291 8.47324H13.4522L11.0308 11.3577H0.762291V8.47324ZM0 28.6197H19.1021V31.5493H0V28.6197Z" fill="white"/><path d="M30.4023 32C26.815 32 24.0648 30.9033 22.1516 28.7099C20.2683 26.5164 19.3267 23.662 19.3267 20.1465C19.3267 16.4507 20.2833 13.5061 22.1965 11.3127C24.1396 9.11925 26.8748 8.02254 30.4023 8.02254C34.139 8.02254 36.9042 9.17934 38.6978 11.493C40.5213 13.8066 41.2986 16.8864 41.0295 20.7324H25.1111V18.2085H37.5768C37.2181 13.3108 34.8266 10.862 30.4023 10.862C27.8314 10.862 25.9033 11.6883 24.6179 13.3408C23.3623 14.9634 22.7345 17.1869 22.7345 20.0113C22.7345 22.8958 23.3623 25.1493 24.6179 26.7718C25.9033 28.3643 27.8464 29.1606 30.4471 29.1606C32.2109 29.1606 33.6906 28.77 34.8864 27.9887C36.112 27.2075 36.9191 26.1108 37.3078 24.6986H40.7156C40.3569 26.892 39.2359 28.6648 37.3526 30.0169C35.4693 31.339 33.1525 32 30.4023 32Z" fill="white"/><path d="M49.9346 10.0056C51.519 8.68357 53.2827 8.02254 55.2258 8.02254H56.7055V11.2225H55.2706C54.3439 11.2225 53.3574 11.3878 52.3111 11.7183C51.2649 12.0488 50.4727 12.5296 49.9346 13.1606V10.0056ZM44.1053 8.47324H47.1993L47.6926 11.9437V31.5493H44.1053V8.47324Z" fill="white"/><path d="M56.8372 18.9296C56.9867 15.5944 58.033 12.9502 59.9761 10.9972C61.9192 9.01408 64.5797 8.02254 67.9577 8.02254C71.3357 8.02254 73.9963 9.01408 75.9394 10.9972C77.9123 12.9502 78.9736 15.5944 79.123 18.9296H75.5358C75.3863 16.4657 74.6838 14.5277 73.4283 13.1155C72.2026 11.6732 70.3791 10.9521 67.9577 10.9521C65.5363 10.9521 63.7128 11.6732 62.4872 13.1155C61.2615 14.5277 60.574 16.4657 60.4245 18.9296H56.8372ZM56.8372 21.0479H60.4245C60.5441 23.5117 61.2167 25.4648 62.4423 26.907C63.6979 28.3493 65.5363 29.0704 67.9577 29.0704C70.3791 29.0704 72.2026 28.3493 73.4283 26.907C74.6838 25.4648 75.3863 23.5117 75.5358 21.0479H79.123C78.9736 24.3831 77.9123 27.0423 75.9394 29.0254C73.9963 31.0084 71.3357 32 67.9577 32C64.5797 32 61.9192 31.0084 59.9761 29.0254C58.033 27.0423 56.9867 24.3831 56.8372 21.0479Z" fill="white"/><path d="M80.1621 2.88451L88.4128 0H92V31.5493H87.8747V4.50704L81.1934 6.49014L80.1621 2.88451Z" fill="white"/></svg>